<svg xmlns="http://www.w3.org/2000/svg" id="svg1" version="1.1" viewBox="0 0 763.26305 219"><defs id="defs1"><clipPath clipPathunits="userSpaceOnUse" id="clipPath2"><path d="M 0,595.276 H 841.89 V 0 H 0 Z" id="path2" transform="translate(-294.0682,-299.57831)"></path></clipPath><clipPath clipPathunits="userSpaceOnUse" id="clipPath4"><path d="M 0,595.276 H 841.89 V 0 H 0 Z" id="path4" transform="translate(-225.6523,-312.13071)"></path></clipPath><clipPath clipPathunits="userSpaceOnUse" id="clipPath6"><path d="M 0,595.276 H 841.89 V 0 H 0 Z" id="path6" transform="translate(-205.79011,-239.46811)"></path></clipPath><clipPath clipPathunits="userSpaceOnUse" id="clipPath8"><path d="M 0,595.276 H 841.89 V 0 H 0 Z" id="path8" transform="translate(-218.09721,-239.46811)"></path></clipPath><clipPath clipPathunits="userSpaceOnUse" id="clipPath10"><path d="M 0,595.276 H 841.89 V 0 H 0 Z" id="path10" transform="translate(-206.69151,-292.31911)"></path></clipPath><clipPath clipPathunits="userSpaceOnUse" id="clipPath12"><path d="M 0,595.276 H 841.89 V 0 H 0 Z" id="path12" transform="translate(-224.75241,-291.54131)"></path></clipPath><clipPath clipPathunits="userSpaceOnUse" id="clipPath14"><path d="M 0,595.276 H 841.89 V 0 H 0 Z" id="path14" transform="translate(-214.91611,-279.60721)"></path></clipPath><clipPath clipPathunits="userSpaceOnUse" id="clipPath16"><path d="M 0,595.276 H 841.89 V 0 H 0 Z" id="path16" transform="translate(-206.62861,-272.4281)"></path></clipPath><clipPath clipPathunits="userSpaceOnUse" id="clipPath18"><path d="M 0,595.276 H 841.89 V 0 H 0 Z" id="path18" transform="translate(-426.52401,-304.08401)"></path></clipPath><clipPath clipPathunits="userSpaceOnUse" id="clipPath20"><path d="M 0,595.276 H 841.89 V 0 H 0 Z" id="path20" transform="translate(-550.84781,-293.28101)"></path></clipPath><clipPath clipPathunits="userSpaceOnUse" id="clipPath22"><path d="M 0,595.276 H 841.89 V 0 H 0 Z" id="path22" transform="translate(-608.64251,-294.68411)"></path></clipPath><clipPath clipPathunits="userSpaceOnUse" id="clipPath24"><path d="M 0,595.276 H 841.89 V 0 H 0 Z" id="path24" transform="translate(-672.80351,-284.89681)"></path></clipPath><clipPath clipPathunits="userSpaceOnUse" id="clipPath26"><path d="M 0,595.276 H 841.89 V 0 H 0 Z" id="path26" transform="translate(-474.42931,-291.58741)"></path></clipPath><clipPath clipPathunits="userSpaceOnUse" id="clipPath28"><path d="M 0,595.276 H 841.89 V 0 H 0 Z" id="path28" transform="translate(-350.19511,-314.88841)"></path></clipPath><clipPath clipPathunits="userSpaceOnUse" id="clipPath30"><path d="M 0,595.276 H 841.89 V 0 H 0 Z" id="path30" transform="translate(-294.0682,-299.57831)"></path></clipPath><clipPath clipPathunits="userSpaceOnUse" id="clipPath32"><path d="M 0,595.276 H 841.89 V 0 H 0 Z" id="path32" transform="translate(-225.65241,-312.13071)"></path></clipPath><clipPath clipPathunits="userSpaceOnUse" id="clipPath34"><path d="M 0,595.276 H 841.89 V 0 H 0 Z" id="path34" transform="translate(-205.79011,-239.46811)"></path></clipPath><clipPath clipPathunits="userSpaceOnUse" id="clipPath36"><path d="M 0,595.276 H 841.89 V 0 H 0 Z" id="path36" transform="translate(-218.09731,-239.46811)"></path></clipPath><clipPath clipPathunits="userSpaceOnUse" id="clipPath38"><path d="M 0,595.276 H 841.89 V 0 H 0 Z" id="path38" transform="translate(-206.69151,-292.31911)"></path></clipPath><clipPath clipPathunits="userSpaceOnUse" id="clipPath40"><path d="M 0,595.276 H 841.89 V 0 H 0 Z" id="path40" transform="translate(-224.75241,-291.54131)"></path></clipPath><clipPath clipPathunits="userSpaceOnUse" id="clipPath42"><path d="M 0,595.276 H 841.89 V 0 H 0 Z" id="path42" transform="translate(-214.91611,-279.60721)"></path></clipPath><clipPath clipPathunits="userSpaceOnUse" id="clipPath44"><path d="M 0,595.276 H 841.89 V 0 H 0 Z" id="path44" transform="translate(-206.6287,-272.42801)"></path></clipPath><clipPath clipPathunits="userSpaceOnUse" id="clipPath46"><path d="M 0,595.276 H 841.89 V 0 H 0 Z" id="path46" transform="translate(-279.54931,-371.05481)"></path></clipPath><clipPath clipPathunits="userSpaceOnUse" id="clipPath48"><path d="M 0,595.276 H 841.89 V 0 H 0 Z" id="path48" transform="translate(-280.7572,-365.63801)"></path></clipPath></defs><g id="layer-MC0" transform="translate(-173.09225,-284.76361)"><path clip-path="url(#clipPath2)" d="m 0,0 c 0,-45.356 -36.768,-82.125 -82.125,-82.125 -45.356,0 -82.124,36.769 -82.124,82.125 0,45.356 36.768,82.125 82.124,82.125 C -36.768,82.125 0,45.356 0,0" fill="#ffffff" fill-opacity="1" fill-rule="nonzero" id="path1" stroke="none" transform="matrix(1.3333333,0,0,-1.3333333,392.09093,394.2636)"></path><path clip-path="url(#clipPath4)" d="m 0,0 c -0.587,-1.246 -1.884,-1.899 -2.87,-1.405 -0.956,0.48 -1.283,1.873 -0.746,3.108 0.55,1.262 1.872,1.875 2.871,1.404 C 0.253,2.637 0.586,1.246 0,0 m -24.546,-1.407 c -0.988,-0.496 -2.286,0.159 -2.873,1.406 -0.588,1.247 -0.254,2.64 0.746,3.111 1,0.471 2.323,-0.142 2.873,-1.406 0.538,-1.237 0.212,-2.631 -0.746,-3.111 m 61.549,-20.658 c -0.945,0 -1.848,0.169 -2.691,0.466 0.561,1.26 0.876,2.652 0.876,4.117 0,4.091 -2.436,7.621 -5.931,9.225 v 6.415 c -0.475,-0.054 -0.957,-0.085 -1.446,-0.085 -6.918,0 -12.526,5.608 -12.526,12.525 0,1.447 0.26,2.829 0.713,4.122 0.771,-0.795 1.895,-1.247 3.12,-1.098 1.641,0.201 2.988,1.532 3.204,3.171 0.331,2.518 -1.871,4.626 -4.413,4.131 -1.343,-0.261 -2.448,-1.299 -2.816,-2.616 -0.235,-0.841 -0.161,-1.641 0.109,-2.343 -0.553,-0.062 -1.112,-0.105 -1.682,-0.105 -7.266,0 -13.324,5.097 -14.841,11.906 0.811,-0.08 1.686,0.049 2.608,0.646 1.28,0.827 2.138,2.194 2.103,3.717 -0.058,2.561 -2.364,4.567 -5.023,4.123 -1.816,-0.304 -3.263,-1.812 -3.505,-3.638 -0.262,-1.972 0.821,-3.722 2.458,-4.475 -2.952,-2.58 -6.807,-4.15 -11.035,-4.15 -4.227,0 -8.083,1.569 -11.034,4.148 1.631,0.749 2.714,2.488 2.466,4.45 -0.239,1.891 -1.777,3.439 -3.666,3.688 -2.926,0.386 -5.374,-2.183 -4.777,-5.139 0.299,-1.481 1.407,-2.719 2.846,-3.178 0.617,-0.197 1.216,-0.249 1.783,-0.191 -1.517,-6.81 -7.574,-11.907 -14.84,-11.907 -0.573,0 -1.134,0.043 -1.69,0.106 0.271,0.702 0.344,1.502 0.109,2.342 -0.368,1.317 -1.473,2.354 -2.816,2.616 -2.541,0.495 -4.743,-1.613 -4.413,-4.13 0.215,-1.641 1.564,-2.973 3.207,-3.172 1.228,-0.149 2.352,0.306 3.123,1.104 0.454,-1.294 0.715,-2.679 0.715,-4.128 0,-6.917 -5.608,-12.525 -12.526,-12.525 -0.489,0 -0.971,0.031 -1.446,0.085 v -6.415 c -3.496,-1.604 -5.931,-5.134 -5.931,-9.225 0,-1.465 0.315,-2.857 0.876,-4.117 -0.843,-0.297 -1.746,-0.466 -2.691,-0.466 -4.761,0 -8.565,4.104 -8.065,8.967 0.376,3.657 3.274,6.659 6.914,7.169 1.925,0.27 3.734,-0.152 5.239,-1.033 l 2.55,5.297 c -5.692,1.179 -9.97,6.221 -9.97,12.263 0,6.918 5.607,12.526 12.524,12.526 0.215,0 0.427,-0.007 0.639,-0.018 l -0.001,0.003 c 0.259,0.062 0.418,0.321 0.357,0.58 h 10e-4 c -1.485,2.663 -2.207,5.809 -1.833,9.151 0.784,6.989 6.432,12.619 13.424,13.379 4.396,0.479 8.463,-0.92 11.51,-3.491 0.285,-0.24 0.727,-0.071 0.776,0.299 1.097,8.213 8.126,14.549 16.64,14.549 8.516,0 15.548,-6.341 16.641,-14.559 0.049,-0.37 0.491,-0.539 0.776,-0.298 3.052,2.579 7.13,3.982 11.536,3.499 6.991,-0.767 12.634,-6.401 13.411,-13.391 0.371,-3.342 -0.353,-6.488 -1.841,-9.15 l 0.008,-0.002 c -0.06,-0.251 0.091,-0.5 0.337,-0.57 0.218,0.012 0.437,0.019 0.658,0.019 6.917,0 12.525,-5.608 12.525,-12.526 0,-6.042 -4.279,-11.084 -9.97,-12.263 l 2.549,-5.297 c 1.213,0.71 2.622,1.122 4.131,1.114 4.296,-0.023 7.919,-3.541 8.061,-7.834 0.152,-4.603 -3.534,-8.383 -8.104,-8.383 m -3.784,3.76 c -10e-4,-0.009 -10e-4,-0.018 -10e-4,-0.027 -0.132,-1.841 -0.498,-3.609 -1.108,-5.271 -0.367,-0.997 -0.822,-1.955 -1.366,-2.869 -0.115,-0.194 -0.236,-0.386 -0.364,-0.574 -0.765,-1.129 -1.745,-2.138 -2.92,-2.87 -0.196,-0.122 -0.397,-0.236 -0.604,-0.342 -0.41,-0.225 -0.837,-0.414 -1.277,-0.571 -0.658,-0.234 -1.342,-0.392 -2.039,-0.476 -0.464,-0.056 -0.933,-0.077 -1.402,-0.068 -0.938,0.021 -1.877,0.172 -2.778,0.448 -0.677,0.208 -1.332,0.487 -1.951,0.835 -0.413,0.232 -0.809,0.495 -1.184,0.788 -1.498,1.159 -2.684,2.742 -3.335,4.54 -0.34,0.893 -0.544,1.84 -0.605,2.793 l -0.04,0.709 -0.004,0.318 -0.004,0.317 -0.015,1.273 -0.064,4.807 c -0.021,1.694 -0.019,3.929 -0.156,5.503 C 11.481,-2.61 8.464,3.53 3.748,7.867 c -2.36,2.161 -5.093,3.918 -8.066,5.103 -2.971,1.191 -6.191,1.692 -9.403,1.722 -3.212,-0.03 -6.408,-0.531 -9.379,-1.722 -2.973,-1.185 -5.706,-2.942 -8.066,-5.103 -4.715,-4.337 -7.732,-10.477 -8.254,-16.909 -0.137,-1.574 -0.135,-3.809 -0.156,-5.503 l -0.063,-4.807 -0.016,-1.273 -0.004,-0.317 -0.004,-0.318 -0.039,-0.709 c -0.061,-0.953 -0.265,-1.9 -0.605,-2.793 -0.652,-1.798 -1.838,-3.381 -3.336,-4.54 -0.375,-0.293 -0.77,-0.556 -1.184,-0.788 -0.619,-0.348 -1.274,-0.627 -1.95,-0.835 -0.902,-0.276 -1.841,-0.427 -2.779,-0.448 -0.469,-0.009 -0.938,0.012 -1.402,0.068 -0.696,0.084 -1.382,0.242 -2.039,0.476 -0.44,0.157 -0.866,0.346 -1.277,0.571 -0.207,0.106 -0.408,0.22 -0.603,0.342 -1.176,0.732 -2.155,1.741 -2.921,2.87 -0.128,0.188 -0.249,0.38 -0.365,0.574 -0.544,0.914 -0.998,1.872 -1.364,2.869 -0.611,1.662 -0.977,3.43 -1.108,5.271 -0.001,0.009 -0.001,0.018 -0.001,0.027 -0.019,0.268 -0.04,0.536 -0.049,0.807 0.003,-0.012 0.007,-0.023 0.01,-0.035 0,0.006 -0.001,0.012 -0.001,0.017 0,0.006 -10e-4,0.012 -10e-4,0.018 0,3.367 2.047,6.256 4.965,7.49 0.972,0.411 2.041,0.639 3.164,0.639 0.561,0 1.109,-0.057 1.638,-0.166 0.529,-0.108 1.04,-0.267 1.526,-0.473 0.972,-0.412 1.848,-1.007 2.584,-1.743 0.184,-0.184 0.358,-0.376 0.525,-0.576 0.331,-0.402 0.625,-0.836 0.875,-1.296 0.625,-1.152 0.981,-2.473 0.981,-3.875 0,-1.404 -0.356,-2.723 -0.981,-3.875 -0.25,-0.46 -0.544,-0.895 -0.875,-1.296 -0.167,-0.201 -0.341,-0.393 -0.525,-0.577 -0.736,-0.736 -1.612,-1.331 -2.584,-1.742 -0.486,-0.206 -0.997,-0.365 -1.526,-0.474 -0.529,-0.108 -1.077,-0.165 -1.638,-0.165 -0.163,0 -0.326,0.005 -0.487,0.014 -0.322,0.02 -0.64,0.057 -0.95,0.113 -0.156,0.028 -0.31,0.06 -0.462,0.097 -0.761,0.183 -1.48,0.473 -2.141,0.854 -0.383,0.221 -0.747,0.473 -1.088,0.752 -0.256,0.209 -0.61,-0.099 -0.451,-0.389 0.373,-0.68 0.718,-1.212 1.011,-1.63 0.453,-0.647 0.997,-1.225 1.603,-1.716 0.606,-0.492 1.275,-0.897 1.98,-1.2 0.528,-0.234 1.078,-0.407 1.637,-0.524 0.933,-0.194 1.894,-0.23 2.834,-0.125 1.312,0.179 2.57,0.668 3.636,1.431 0.153,0.109 0.3,0.224 0.444,0.343 0.145,0.118 0.285,0.242 0.421,0.37 0.681,0.638 1.252,1.392 1.671,2.22 0.168,0.331 0.312,0.673 0.429,1.025 0.123,0.348 0.219,0.706 0.288,1.07 0.069,0.363 0.11,0.731 0.124,1.1 l 0.018,0.562 -0.007,0.635 -0.016,1.273 -0.063,5.088 c -0.01,0.848 -0.028,1.69 -0.03,2.546 -0.002,0.856 0.011,1.727 0.064,2.632 0.204,3.549 1.078,7.072 2.583,10.314 0.571,1.213 1.228,2.384 1.963,3.505 0.491,0.747 1.017,1.471 1.575,2.169 0.558,0.698 1.149,1.371 1.77,2.014 0.311,0.322 0.629,0.637 0.955,0.943 0.973,0.929 2.016,1.78 3.116,2.55 0.366,0.257 0.739,0.504 1.118,0.743 0.757,0.477 1.537,0.917 2.337,1.319 3.997,2.013 8.476,3.082 12.945,3.068 0.003,0 0.006,0 0.008,0 v 0 h 0.005 0.003 v 0 c 0.003,0 0.006,0 0.008,0 4.47,0.014 8.948,-1.055 12.945,-3.068 0.8,-0.402 1.58,-0.842 2.337,-1.319 0.379,-0.239 0.752,-0.486 1.118,-0.743 1.1,-0.77 2.144,-1.621 3.116,-2.55 C 6.145,9.553 6.464,9.238 6.774,8.916 7.395,8.273 7.986,7.6 8.544,6.902 9.103,6.204 9.629,5.48 10.119,4.733 c 0.736,-1.121 1.392,-2.292 1.963,-3.505 1.505,-3.242 2.379,-6.765 2.583,-10.314 0.053,-0.905 0.067,-1.776 0.064,-2.632 -0.002,-0.856 -0.019,-1.698 -0.029,-2.546 l -0.063,-5.088 -0.016,-1.273 -0.008,-0.635 0.019,-0.562 c 0.013,-0.369 0.054,-0.737 0.123,-1.1 0.069,-0.364 0.166,-0.722 0.289,-1.07 0.117,-0.352 0.261,-0.694 0.429,-1.025 0.419,-0.828 0.99,-1.582 1.67,-2.22 0.136,-0.128 0.276,-0.252 0.421,-0.37 0.144,-0.119 0.292,-0.234 0.444,-0.343 1.066,-0.763 2.324,-1.252 3.637,-1.431 0.939,-0.105 1.9,-0.069 2.833,0.125 0.56,0.117 1.109,0.29 1.637,0.524 0.705,0.303 1.374,0.708 1.98,1.2 0.607,0.491 1.15,1.069 1.602,1.716 0.294,0.418 0.639,0.95 1.013,1.63 0.159,0.29 -0.195,0.598 -0.451,0.389 -0.342,-0.279 -0.706,-0.531 -1.089,-0.752 -0.661,-0.381 -1.38,-0.671 -2.141,-0.854 -0.152,-0.037 -0.306,-0.069 -0.462,-0.097 -0.31,-0.056 -0.627,-0.093 -0.949,-0.113 -0.162,-0.009 -0.324,-0.014 -0.488,-0.014 -0.56,0 -1.109,0.057 -1.638,0.165 -0.529,0.109 -1.039,0.268 -1.525,0.474 -0.973,0.411 -1.848,1.006 -2.584,1.742 -0.184,0.184 -0.36,0.376 -0.525,0.577 -0.331,0.401 -0.625,0.836 -0.876,1.296 -0.625,1.152 -0.98,2.471 -0.98,3.875 0,1.402 0.355,2.723 0.98,3.875 0.251,0.46 0.545,0.894 0.876,1.296 0.165,0.2 0.341,0.392 0.525,0.576 0.736,0.736 1.611,1.331 2.584,1.743 0.486,0.206 0.996,0.365 1.525,0.473 0.529,0.109 1.078,0.166 1.638,0.166 1.123,0 2.192,-0.228 3.165,-0.639 2.917,-1.234 4.965,-4.123 4.965,-7.49 0,-0.006 -10e-4,-0.012 -0.002,-0.018 0,-0.005 0,-0.011 0,-0.017 0.003,0.012 0.006,0.023 0.01,0.035 -0.009,-0.271 -0.03,-0.539 -0.049,-0.807 M -13.709,3.53 c -2.065,0 -3.739,1.674 -3.739,3.74 0,2.065 1.674,3.739 3.739,3.739 2.066,0 3.74,-1.674 3.74,-3.739 0,-2.066 -1.674,-3.74 -3.74,-3.74 m 0,66.042 c -45.348,0 -82.11,-36.762 -82.11,-82.11 0,-24.487 10.723,-46.466 27.724,-61.51 2.231,1.966 5.308,3.741 8.704,4.669 5.861,1.602 9.986,1.836 16.122,3.083 -0.246,-9.823 -0.443,-18.325 -0.541,-22.659 2.644,-1.043 5.357,-1.947 8.126,-2.715 -2.37,19.18 -2.917,44.326 -3.043,54.366 l -0.037,4.396 v 2.734 c 0.729,-0.335 1.415,-1.323 1.464,-2.182 l 1.686,-32.082 c 6.554,2.033 8.142,5.489 8.703,8.424 0.002,-0.008 0.004,-0.008 0.007,0.005 0.596,2.942 3.341,5.272 6.459,5.272 0.784,0 1.408,-0.081 1.997,-0.245 1.837,-0.509 3.86,-0.571 4.564,-0.571 1.455,0 3.684,0.68 4.927,1.436 1.829,1.113 2.521,1.865 3.105,2.698 -10e-4,0.021 -0.006,0.039 -0.018,0.051 -0.011,0.01 -0.03,0.013 -0.052,0.014 -0.675,-0.488 -1.223,-0.786 -1.68,-1.058 -1.713,-1.02 -3.896,-1.639 -6.17,-1.649 -2.274,0.01 -4.525,0.586 -6.222,1.633 -3.97,2.45 -9.928,7.421 -13.599,15.26 -3.322,7.093 -3.303,19.189 -3.28,21.015 0.008,0.922 0.767,1.829 1.663,2.038 2.824,0.166 8.094,0.278 10.8,-0.851 3.097,-1.291 5.889,-4.093 7.026,-8.856 h 0.004 c 0,-0.006 -0.004,-0.011 -0.004,-0.017 0,-0.128 0.106,-0.231 0.237,-0.231 0.13,0 0.236,0.103 0.236,0.231 0,0.012 -0.005,0.023 -0.007,0.034 h 0.007 c -0.218,3.489 -1.37,7.621 -6.2,10.128 -2.299,1.193 -5.189,1.59 -7.724,1.656 0.878,1.143 1.071,3.033 1.072,4.407 l 0.002,-0.002 c 0,0 -0.017,0.173 0.102,0.224 0.106,0.044 0.191,-0.028 0.241,-0.083 h 10e-4 c 1.959,-2.128 4.638,-3.125 6.647,-2.112 2.13,1.075 2.854,4.156 2.162,7.262 l 0.001,-0.002 c 0,0 -0.018,0.174 0.102,0.224 0.095,0.04 0.172,-0.014 0.223,-0.066 1.418,-2.127 3.785,-3.584 6.573,-3.62 2.789,0.036 5.155,1.493 6.573,3.62 0.052,0.052 0.128,0.106 0.224,0.066 0.119,-0.05 0.102,-0.224 0.102,-0.224 l 10e-4,0.002 C -7.502,-1.431 -6.778,-4.512 -4.648,-5.587 -2.639,-6.6 0.04,-5.603 2,-3.475 c 0,0 10e-4,-10e-4 10e-4,-10e-4 0.05,0.056 0.135,0.128 0.241,0.084 0.119,-0.051 0.102,-0.224 0.102,-0.224 l 0.001,0.002 c 0.002,-1.374 0.194,-3.264 1.072,-4.407 -2.535,-0.066 -5.424,-0.463 -7.724,-1.656 -4.829,-2.507 -5.981,-6.639 -6.199,-10.128 h 0.003 c 0,-0.006 -0.003,-0.011 -0.003,-0.017 0,-0.128 0.105,-0.231 0.236,-0.231 0.13,0 0.236,0.103 0.236,0.231 1.138,4.763 3.929,7.565 7.026,8.856 2.703,1.127 7.961,1.017 10.789,0.852 0.862,-0.208 1.479,-1.116 1.487,-2.039 H 9.246 c 0.006,-0.053 0.022,-0.106 0.022,-0.158 v 0.158 H 9.269 C 9.277,-15.005 9.37,-26.123 5.958,-33.381 4.111,-37.312 1.207,-40.81 -1.526,-43.485 l 0.077,-4.483 c 0.052,-2.453 0.269,-5.376 0.638,-7.771 0.503,-3.261 2.455,-6.752 8.947,-8.652 l 1.686,32.082 c 0.054,0.806 0.67,1.789 1.464,2.182 v -2.71 l -0.037,-4.428 c -0.126,-10.056 -0.675,-35.24 -3.052,-54.423 2.774,0.766 5.489,1.669 8.136,2.71 -0.097,4.313 -0.295,12.852 -0.542,22.729 6.136,-1.247 9.71,-1.528 15.571,-3.13 3.559,-0.973 6.755,-2.875 8.995,-4.953 17.188,15.05 28.045,37.153 28.045,61.794 0,45.348 -36.763,82.11 -82.111,82.11" fill="#ff0000" fill-opacity="1" fill-rule="nonzero" id="path3" stroke="none" transform="matrix(1.3333333,0,0,-1.3333333,300.86973,377.52707)"></path><path clip-path="url(#clipPath6)" d="m 0,0 c -0.76,0.529 -2.243,1.344 -4.157,1.344 h -9.791 V -0.442 H -0.14 C 0.098,-0.442 0.195,-0.136 0,0" fill="#ff0000" fill-opacity="1" fill-rule="nonzero" id="path5" stroke="none" transform="matrix(1.3333333,0,0,-1.3333333,274.3868,474.41053)"></path><path clip-path="url(#clipPath8)" d="M 0,0 C -0.195,-0.136 -0.098,-0.442 0.14,-0.442 H 13.948 V 1.344 H 4.157 C 2.243,1.344 0.76,0.529 0,0" fill="#ff0000" fill-opacity="1" fill-rule="nonzero" id="path7" stroke="none" transform="matrix(1.3333333,0,0,-1.3333333,290.79627,474.41053)"></path><path clip-path="url(#clipPath10)" d="m 0,0 c 0.176,-0.027 0.283,0.136 0.182,0.283 -0.277,0.403 -0.96,0.946 -1.913,1.133 -1.111,0.219 -1.903,-0.06 -3.721,-0.032 -1.758,0.026 -3.39,0.356 -4.978,1.105 -2.526,1.19 -4.371,0.65 -5.39,0.177 -0.165,-0.076 -0.12,-0.336 0.061,-0.321 1.341,0.109 2.198,-0.223 3.266,-1.013 1.111,-0.822 3.335,-1.95 4.936,-2.11 1.454,-0.145 2.998,-0.067 4.234,0.342 C -2.196,-0.063 -1.157,0.179 0,0" fill="#ff0000" fill-opacity="1" fill-rule="nonzero" id="path9" stroke="none" transform="matrix(1.3333333,0,0,-1.3333333,275.58867,403.94253)"></path><path clip-path="url(#clipPath12)" d="M 0,0 C 1.601,0.16 3.826,1.288 4.937,2.11 6.004,2.9 6.861,3.231 8.203,3.123 8.383,3.108 8.428,3.368 8.264,3.444 7.244,3.916 5.399,4.457 2.873,3.267 1.285,2.518 -0.347,2.188 -2.104,2.162 -3.923,2.134 -4.715,2.413 -5.825,2.194 -6.779,2.007 -7.461,1.464 -7.739,1.06 -7.839,0.914 -7.732,0.75 -7.557,0.778 -6.4,0.957 -5.361,0.715 -4.234,0.342 -2.998,-0.067 -1.454,-0.145 0,0" fill="#ff0000" fill-opacity="1" fill-rule="nonzero" id="path11" stroke="none" transform="matrix(1.3333333,0,0,-1.3333333,299.66987,404.9796)"></path><path clip-path="url(#clipPath14)" d="M 0,0 C 0.265,0.158 0.361,0.29 0.347,0.38 0.375,0.553 0.062,0.612 -0.348,0.469 -2.458,-0.267 -3.444,-0.27 -5.598,0.468 -6.013,0.61 -6.311,0.527 -6.291,0.354 -6.307,0.264 -6.224,0.14 -5.997,0.008 -3.424,-1.499 -2.506,-1.497 0,0" fill="#ff0000" fill-opacity="1" fill-rule="nonzero" id="path13" stroke="none" transform="matrix(1.3333333,0,0,-1.3333333,286.5548,420.89173)"></path><path clip-path="url(#clipPath16)" d="m 0,0 c 0.445,-0.704 1.108,-1.406 2.159,-1.952 1.165,-0.606 2.38,-0.666 3.156,-0.666 0.776,0 1.99,0.06 3.156,0.666 1.051,0.546 1.714,1.248 2.159,1.952 0.227,0.36 0.582,0.746 0.807,0.882 0.143,0.124 0.164,0.253 0.085,0.369 -0.099,0.143 -0.339,0.06 -0.339,0.06 C 10.661,1.098 9.654,1.051 9.147,1.201 8.042,1.529 6.747,1.594 6.079,1.006 5.844,0.8 5.595,0.598 5.315,0.598 5.035,0.598 4.786,0.8 4.551,1.006 3.883,1.594 2.587,1.529 1.483,1.201 0.976,1.051 -0.031,1.098 -0.553,1.311 c 0,0 -0.24,0.083 -0.339,-0.06 C -0.972,1.135 -0.95,1.006 -0.807,0.882 -0.582,0.746 -0.227,0.36 0,0" fill="#ff0000" fill-opacity="1" fill-rule="nonzero" id="path15" stroke="none" transform="matrix(1.3333333,0,0,-1.3333333,275.5048,430.46387)"></path><path class="fill-current" clip-path="url(#clipPath18)" d="M 0,0 H -24.776 V 19.619 H -36.641 V -28.63 h 11.865 V -9.846 H 0 V -28.63 H 11.866 V 19.619 H 0 Z" id="path17" transform="matrix(1.3333333,0,0,-1.3333333,568.69867,388.256)"></path><path class="fill-current" clip-path="url(#clipPath20)" d="M 0,0 H 11.464 V -5.757 C 9.073,-7.578 5.485,-9.113 0.25,-9.173 c -9.745,-0.111 -16.408,7.111 -16.408,15.666 0,9.61 7.747,15.363 16.55,15.363 7.3,0 14.793,-4.993 14.793,-4.993 l 4.422,7.789 c 0,0 -7.584,6.977 -19.631,6.977 -16.664,0 -27.403,-10.997 -27.403,-25.183 0,-13.514 9.853,-25.136 26.988,-25.136 10.061,0 17.068,3.7 22.051,7.915 V 9.011 H 0 Z" id="path19" transform="matrix(1.3333333,0,0,-1.3333333,734.46373,402.66)"></path><path class="fill-current" clip-path="url(#clipPath22)" d="M 0,0 H 26.024 V 9.443 H 0 v 10.133 h 27.98 v 9.443 H -11.789 V -19.23 h 41.252 v 9.443 H 0 Z" id="path21" transform="matrix(1.3333333,0,0,-1.3333333,811.52333,400.7892)"></path><path class="fill-current" clip-path="url(#clipPath24)" d="M 0,0 V 9.787 H 26.023 V 19.23 H 0 v 10.133 h 27.98 v 9.443 H -11.788 V -9.443 H 29.463 V 0 Z" id="path23" transform="matrix(1.3333333,0,0,-1.3333333,897.07133,413.83893)"></path><path class="fill-current" clip-path="url(#clipPath26)" d="M 0,0 8.651,19.018 17.374,0 Z m 3.42,32.116 -22.75,-48.249 h 11.991 l 2.935,6.452 h 26.218 l 2.96,-6.452 H 36.937 L 14.188,32.116 Z" id="path25" transform="matrix(1.3333333,0,0,-1.3333333,632.5724,404.91813)"></path><path class="fill-current" clip-path="url(#clipPath28)" d="m 0,0 c 6.331,0 11.253,-2.722 14.726,-6.216 l 7.277,6.317 C 17.457,5.655 9.786,10.109 0.113,10.109 c -16.049,0 -27.159,-11.537 -27.159,-25.429 0,-13.648 10.345,-25.409 26.683,-25.409 11.565,0 17.954,5.622 22.366,10.967 l -7.704,7.015 c -2.395,-3.067 -6.784,-7.628 -14.845,-7.628 -8.657,0 -14.904,6.978 -14.799,15.024 C -15.23,-6.527 -8.516,0 0,0" id="path27" transform="matrix(1.3333333,0,0,-1.3333333,466.9268,373.85013)"></path><path clip-path="url(#clipPath30)" d="m 0,0 c 0,-45.356 -36.768,-82.125 -82.125,-82.125 -45.356,0 -82.124,36.769 -82.124,82.125 0,45.356 36.768,82.125 82.124,82.125 C -36.768,82.125 0,45.356 0,0" fill="#ffffff" fill-opacity="1" fill-rule="nonzero" id="path29" stroke="none" transform="matrix(1.3333333,0,0,-1.3333333,392.09093,394.2636)"></path><path clip-path="url(#clipPath32)" d="m 0,0 c -0.587,-1.246 -1.884,-1.899 -2.87,-1.405 -0.956,0.48 -1.283,1.872 -0.746,3.108 0.55,1.262 1.872,1.875 2.871,1.404 C 0.253,2.637 0.586,1.246 0,0 m -24.546,-1.407 c -0.988,-0.496 -2.286,0.159 -2.873,1.406 -0.588,1.247 -0.254,2.64 0.746,3.111 1,0.471 2.323,-0.142 2.873,-1.406 0.538,-1.237 0.212,-2.631 -0.746,-3.111 m 61.549,-20.658 c -0.945,0 -1.848,0.169 -2.691,0.466 0.561,1.26 0.876,2.652 0.876,4.117 0,4.091 -2.436,7.621 -5.931,9.225 v 6.415 c -0.475,-0.054 -0.957,-0.085 -1.446,-0.085 -6.918,0 -12.526,5.608 -12.526,12.525 0,1.447 0.26,2.829 0.713,4.122 0.771,-0.795 1.895,-1.247 3.12,-1.098 1.641,0.201 2.988,1.532 3.204,3.171 0.331,2.518 -1.871,4.626 -4.413,4.131 -1.343,-0.262 -2.448,-1.299 -2.816,-2.616 -0.235,-0.841 -0.161,-1.641 0.109,-2.343 -0.553,-0.062 -1.112,-0.105 -1.682,-0.105 -7.266,0 -13.324,5.097 -14.841,11.906 0.811,-0.08 1.686,0.049 2.608,0.646 1.28,0.827 2.138,2.194 2.104,3.717 -0.059,2.561 -2.365,4.567 -5.024,4.123 -1.816,-0.305 -3.263,-1.812 -3.505,-3.638 -0.262,-1.972 0.821,-3.722 2.458,-4.475 -2.952,-2.58 -6.807,-4.15 -11.035,-4.15 -4.227,0 -8.083,1.569 -11.034,4.148 1.631,0.749 2.714,2.488 2.466,4.45 -0.239,1.891 -1.777,3.439 -3.666,3.688 -2.926,0.386 -5.374,-2.183 -4.777,-5.139 0.299,-1.481 1.407,-2.719 2.846,-3.178 0.617,-0.197 1.216,-0.249 1.783,-0.191 -1.517,-6.81 -7.574,-11.907 -14.84,-11.907 -0.573,0 -1.134,0.043 -1.69,0.106 0.271,0.702 0.344,1.502 0.109,2.342 -0.368,1.317 -1.473,2.354 -2.816,2.616 -2.541,0.495 -4.743,-1.613 -4.413,-4.13 0.215,-1.641 1.564,-2.973 3.206,-3.172 1.229,-0.149 2.353,0.306 3.124,1.104 0.454,-1.294 0.715,-2.679 0.715,-4.128 0,-6.917 -5.608,-12.525 -12.526,-12.525 -0.489,0 -0.971,0.031 -1.446,0.085 v -6.415 c -3.496,-1.604 -5.931,-5.134 -5.931,-9.225 0,-1.465 0.315,-2.857 0.876,-4.117 -0.843,-0.297 -1.746,-0.466 -2.691,-0.466 -4.761,0 -8.565,4.104 -8.065,8.967 0.376,3.657 3.274,6.659 6.914,7.169 1.925,0.27 3.734,-0.152 5.239,-1.033 l 2.55,5.297 c -5.692,1.179 -9.97,6.221 -9.97,12.263 0,6.918 5.607,12.526 12.524,12.526 0.215,0 0.427,-0.007 0.639,-0.018 l -0.001,0.003 c 0.259,0.062 0.418,0.321 0.357,0.58 h 10e-4 c -1.485,2.663 -2.207,5.808 -1.833,9.151 0.784,6.989 6.432,12.619 13.424,13.379 4.396,0.479 8.463,-0.92 11.51,-3.491 0.285,-0.24 0.727,-0.071 0.776,0.299 1.097,8.213 8.126,14.549 16.64,14.549 8.516,0 15.548,-6.341 16.641,-14.559 0.049,-0.37 0.491,-0.539 0.776,-0.298 3.052,2.579 7.13,3.982 11.536,3.499 6.991,-0.767 12.634,-6.401 13.411,-13.391 0.371,-3.342 -0.353,-6.488 -1.841,-9.15 l 0.008,-0.002 c -0.06,-0.251 0.091,-0.5 0.337,-0.57 0.218,0.012 0.437,0.019 0.658,0.019 6.917,0 12.525,-5.608 12.525,-12.526 0,-6.042 -4.279,-11.084 -9.97,-12.263 l 2.549,-5.297 c 1.213,0.71 2.622,1.122 4.131,1.114 4.296,-0.023 7.919,-3.541 8.061,-7.834 0.152,-4.603 -3.534,-8.383 -8.104,-8.383 m -3.784,3.76 c -10e-4,-0.009 -10e-4,-0.018 -10e-4,-0.027 -0.132,-1.842 -0.498,-3.609 -1.108,-5.271 -0.367,-0.997 -0.822,-1.955 -1.366,-2.869 -0.115,-0.194 -0.236,-0.386 -0.364,-0.574 -0.765,-1.129 -1.745,-2.138 -2.92,-2.87 -0.196,-0.122 -0.397,-0.236 -0.604,-0.342 -0.41,-0.225 -0.837,-0.414 -1.276,-0.571 -0.659,-0.234 -1.343,-0.392 -2.04,-0.476 -0.464,-0.056 -0.933,-0.077 -1.401,-0.068 -0.939,0.021 -1.878,0.172 -2.779,0.448 -0.677,0.208 -1.332,0.487 -1.951,0.835 -0.413,0.232 -0.809,0.495 -1.184,0.788 -1.498,1.159 -2.684,2.741 -3.335,4.54 -0.34,0.893 -0.544,1.84 -0.605,2.793 l -0.04,0.709 -0.004,0.318 -0.004,0.317 -0.015,1.273 -0.064,4.807 c -0.021,1.694 -0.019,3.929 -0.156,5.503 C 11.481,-2.61 8.464,3.53 3.748,7.867 c -2.36,2.161 -5.093,3.918 -8.066,5.103 -2.971,1.191 -6.191,1.692 -9.403,1.722 -3.212,-0.03 -6.408,-0.531 -9.379,-1.722 -2.973,-1.185 -5.706,-2.942 -8.066,-5.103 -4.715,-4.337 -7.732,-10.477 -8.254,-16.909 -0.137,-1.574 -0.135,-3.809 -0.156,-5.503 l -0.063,-4.807 -0.015,-1.273 -0.005,-0.317 -0.004,-0.318 -0.039,-0.709 c -0.061,-0.953 -0.265,-1.9 -0.605,-2.793 -0.652,-1.799 -1.838,-3.381 -3.336,-4.54 -0.375,-0.293 -0.77,-0.556 -1.184,-0.788 -0.619,-0.348 -1.274,-0.627 -1.95,-0.835 -0.902,-0.276 -1.84,-0.427 -2.779,-0.448 -0.469,-0.009 -0.938,0.012 -1.402,0.068 -0.696,0.084 -1.382,0.242 -2.039,0.476 -0.44,0.157 -0.866,0.346 -1.277,0.571 -0.207,0.106 -0.408,0.22 -0.603,0.342 -1.176,0.732 -2.155,1.741 -2.921,2.87 -0.128,0.188 -0.249,0.38 -0.365,0.574 -0.544,0.914 -0.998,1.872 -1.364,2.869 -0.611,1.662 -0.977,3.429 -1.108,5.271 -0.001,0.009 -0.001,0.018 -0.001,0.027 -0.019,0.268 -0.04,0.536 -0.049,0.807 0.003,-0.012 0.007,-0.023 0.01,-0.035 0,0.006 -0.001,0.012 -0.001,0.017 0,0.006 -10e-4,0.012 -10e-4,0.018 0,3.367 2.047,6.256 4.965,7.49 0.972,0.411 2.041,0.639 3.164,0.639 0.561,0 1.109,-0.057 1.638,-0.166 0.529,-0.108 1.04,-0.267 1.526,-0.473 0.972,-0.412 1.848,-1.007 2.584,-1.743 0.184,-0.184 0.358,-0.376 0.525,-0.576 0.331,-0.402 0.625,-0.836 0.875,-1.296 0.625,-1.152 0.981,-2.473 0.981,-3.875 0,-1.404 -0.356,-2.723 -0.981,-3.875 -0.25,-0.46 -0.544,-0.895 -0.875,-1.296 -0.167,-0.201 -0.341,-0.393 -0.525,-0.577 -0.736,-0.736 -1.612,-1.331 -2.584,-1.742 -0.486,-0.206 -0.997,-0.365 -1.526,-0.474 -0.529,-0.108 -1.077,-0.165 -1.638,-0.165 -0.163,0 -0.326,0.005 -0.487,0.014 -0.322,0.02 -0.64,0.057 -0.95,0.113 -0.156,0.028 -0.31,0.06 -0.462,0.097 -0.761,0.183 -1.48,0.473 -2.141,0.854 -0.383,0.221 -0.747,0.473 -1.088,0.752 -0.256,0.209 -0.61,-0.099 -0.451,-0.389 0.373,-0.68 0.718,-1.212 1.011,-1.63 0.453,-0.647 0.997,-1.225 1.603,-1.716 0.606,-0.492 1.275,-0.897 1.98,-1.2 0.528,-0.234 1.078,-0.407 1.637,-0.524 0.933,-0.194 1.894,-0.23 2.834,-0.125 1.312,0.179 2.57,0.668 3.636,1.431 0.153,0.109 0.3,0.224 0.444,0.343 0.145,0.118 0.285,0.242 0.421,0.37 0.681,0.638 1.252,1.392 1.671,2.22 0.168,0.331 0.312,0.673 0.429,1.025 0.123,0.348 0.219,0.706 0.288,1.07 0.069,0.363 0.11,0.731 0.124,1.1 l 0.018,0.562 -0.007,0.635 -0.016,1.273 -0.063,5.088 c -0.01,0.848 -0.028,1.69 -0.03,2.546 -0.002,0.856 0.011,1.727 0.064,2.632 0.204,3.549 1.078,7.072 2.583,10.314 0.571,1.213 1.228,2.384 1.963,3.505 0.491,0.747 1.017,1.471 1.575,2.169 0.558,0.698 1.149,1.371 1.77,2.014 0.311,0.322 0.629,0.637 0.955,0.943 0.973,0.929 2.016,1.78 3.116,2.55 0.366,0.257 0.739,0.504 1.118,0.743 0.757,0.477 1.537,0.917 2.337,1.319 3.997,2.013 8.476,3.082 12.945,3.068 0.003,0 0.006,0 0.008,0 v 0 h 0.005 0.003 v 0 c 0.003,0 0.006,0 0.008,0 4.47,0.014 8.948,-1.055 12.945,-3.068 0.8,-0.402 1.58,-0.842 2.337,-1.319 0.379,-0.239 0.752,-0.486 1.118,-0.743 1.1,-0.77 2.144,-1.621 3.116,-2.55 C 6.145,9.553 6.464,9.238 6.774,8.916 7.395,8.273 7.986,7.6 8.544,6.902 9.103,6.204 9.629,5.48 10.119,4.733 c 0.736,-1.121 1.392,-2.292 1.963,-3.505 1.505,-3.242 2.379,-6.765 2.583,-10.314 0.053,-0.905 0.067,-1.776 0.064,-2.632 -0.002,-0.856 -0.019,-1.698 -0.029,-2.546 l -0.063,-5.088 -0.016,-1.273 -0.008,-0.635 0.019,-0.562 c 0.013,-0.369 0.055,-0.737 0.123,-1.1 0.069,-0.364 0.166,-0.722 0.289,-1.07 0.117,-0.352 0.261,-0.694 0.429,-1.025 0.419,-0.828 0.99,-1.582 1.67,-2.22 0.136,-0.128 0.276,-0.252 0.421,-0.37 0.144,-0.119 0.292,-0.234 0.444,-0.343 1.067,-0.763 2.324,-1.252 3.637,-1.431 0.939,-0.105 1.9,-0.069 2.833,0.125 0.56,0.117 1.109,0.29 1.637,0.524 0.705,0.303 1.374,0.708 1.98,1.2 0.607,0.491 1.15,1.069 1.602,1.716 0.294,0.418 0.639,0.95 1.013,1.63 0.159,0.29 -0.195,0.598 -0.451,0.389 -0.342,-0.279 -0.706,-0.531 -1.089,-0.752 -0.66,-0.381 -1.38,-0.671 -2.141,-0.854 -0.152,-0.037 -0.306,-0.069 -0.462,-0.097 -0.31,-0.056 -0.627,-0.093 -0.949,-0.113 -0.162,-0.009 -0.324,-0.014 -0.488,-0.014 -0.56,0 -1.109,0.057 -1.638,0.165 -0.529,0.109 -1.039,0.268 -1.525,0.474 -0.973,0.411 -1.848,1.006 -2.584,1.742 -0.184,0.184 -0.36,0.376 -0.525,0.577 -0.331,0.401 -0.625,0.836 -0.876,1.296 -0.625,1.152 -0.98,2.471 -0.98,3.875 0,1.402 0.355,2.723 0.98,3.875 0.251,0.46 0.545,0.894 0.876,1.296 0.165,0.2 0.341,0.392 0.525,0.576 0.736,0.736 1.611,1.331 2.584,1.743 0.486,0.206 0.996,0.365 1.525,0.473 0.529,0.109 1.078,0.166 1.638,0.166 1.123,0 2.192,-0.228 3.165,-0.639 2.917,-1.234 4.965,-4.123 4.965,-7.49 0,-0.006 -10e-4,-0.012 -0.002,-0.018 0,-0.005 0,-0.011 0,-0.017 0.003,0.012 0.006,0.023 0.01,0.035 -0.009,-0.271 -0.03,-0.539 -0.049,-0.807 M -13.709,3.53 c -2.065,0 -3.739,1.674 -3.739,3.74 0,2.065 1.674,3.739 3.739,3.739 2.066,0 3.74,-1.674 3.74,-3.739 0,-2.066 -1.674,-3.74 -3.74,-3.74 m 0,66.042 c -45.348,0 -82.11,-36.762 -82.11,-82.11 0,-24.487 10.723,-46.466 27.724,-61.51 2.231,1.966 5.308,3.741 8.704,4.669 5.861,1.602 9.986,1.836 16.122,3.083 -0.246,-9.823 -0.443,-18.325 -0.541,-22.659 2.644,-1.043 5.357,-1.947 8.126,-2.715 -2.37,19.18 -2.917,44.326 -3.043,54.366 l -0.037,4.396 v 2.734 c 0.729,-0.336 1.415,-1.323 1.464,-2.182 l 1.686,-32.082 c 6.554,2.033 8.142,5.489 8.703,8.424 0.002,-0.008 0.004,-0.008 0.007,0.005 0.596,2.942 3.341,5.272 6.459,5.272 0.784,0 1.408,-0.081 1.997,-0.245 1.837,-0.509 3.86,-0.571 4.564,-0.571 1.455,0 3.684,0.68 4.927,1.436 1.829,1.113 2.521,1.865 3.105,2.698 -10e-4,0.021 -0.006,0.039 -0.018,0.051 -0.011,0.01 -0.03,0.013 -0.052,0.014 -0.675,-0.488 -1.223,-0.786 -1.68,-1.058 -1.713,-1.02 -3.896,-1.639 -6.17,-1.649 -2.274,0.01 -4.525,0.586 -6.222,1.633 -3.97,2.45 -9.928,7.421 -13.599,15.26 -3.322,7.093 -3.303,19.189 -3.28,21.015 0.008,0.922 0.767,1.829 1.663,2.038 2.824,0.166 8.094,0.277 10.8,-0.851 3.097,-1.291 5.889,-4.093 7.026,-8.856 h 0.004 c 0,-0.006 -0.004,-0.011 -0.004,-0.017 0,-0.128 0.106,-0.231 0.237,-0.231 0.13,0 0.236,0.103 0.236,0.231 0,0.012 -0.005,0.022 -0.007,0.034 h 0.007 c -0.218,3.489 -1.37,7.621 -6.2,10.128 -2.299,1.193 -5.188,1.589 -7.724,1.656 0.878,1.143 1.071,3.033 1.072,4.407 l 0.002,-0.002 c 0,0 -0.017,0.173 0.102,0.224 0.106,0.044 0.191,-0.028 0.241,-0.083 h 10e-4 c 1.959,-2.128 4.638,-3.125 6.647,-2.112 2.13,1.075 2.854,4.155 2.162,7.262 l 0.001,-0.002 c 0,0 -0.017,0.174 0.102,0.224 0.095,0.04 0.172,-0.014 0.223,-0.066 1.418,-2.127 3.785,-3.584 6.573,-3.62 2.789,0.036 5.155,1.493 6.573,3.62 0.052,0.052 0.128,0.106 0.224,0.066 0.119,-0.05 0.102,-0.224 0.102,-0.224 l 10e-4,0.002 C -7.502,-1.432 -6.778,-4.512 -4.648,-5.587 -2.639,-6.6 0.04,-5.603 2,-3.475 c 0,0 0,-10e-4 0,-10e-4 0.051,0.056 0.136,0.128 0.242,0.084 0.119,-0.051 0.102,-0.224 0.102,-0.224 l 0.001,0.002 c 0.002,-1.374 0.194,-3.264 1.072,-4.407 -2.535,-0.067 -5.424,-0.463 -7.724,-1.656 -4.829,-2.507 -5.981,-6.639 -6.199,-10.128 h 0.003 c 0,-0.006 -0.003,-0.011 -0.003,-0.017 0,-0.128 0.105,-0.231 0.236,-0.231 0.13,0 0.236,0.103 0.236,0.231 1.138,4.763 3.929,7.565 7.026,8.856 2.703,1.127 7.962,1.017 10.789,0.852 0.862,-0.208 1.479,-1.116 1.487,-2.039 H 9.246 c 0.006,-0.053 0.022,-0.106 0.022,-0.158 v 0.158 H 9.269 C 9.277,-15.005 9.37,-26.123 5.958,-33.381 4.111,-37.312 1.207,-40.81 -1.526,-43.485 l 0.077,-4.483 c 0.052,-2.454 0.269,-5.377 0.638,-7.771 0.503,-3.261 2.455,-6.752 8.947,-8.652 l 1.686,32.082 c 0.054,0.806 0.67,1.789 1.464,2.182 v -2.71 l -0.037,-4.428 c -0.126,-10.056 -0.675,-35.24 -3.051,-54.423 2.773,0.766 5.488,1.669 8.135,2.71 -0.097,4.313 -0.295,12.852 -0.542,22.729 6.136,-1.247 9.71,-1.528 15.571,-3.13 3.559,-0.973 6.755,-2.875 8.995,-4.953 17.188,15.05 28.045,37.153 28.045,61.794 0,45.348 -36.763,82.11 -82.111,82.11" fill="#ff0000" fill-opacity="1" fill-rule="nonzero" id="path31" stroke="none" transform="matrix(1.3333333,0,0,-1.3333333,300.86987,377.52707)"></path><path clip-path="url(#clipPath34)" d="m 0,0 c -0.76,0.529 -2.243,1.344 -4.157,1.344 h -9.791 V -0.442 H -0.14 C 0.098,-0.442 0.195,-0.136 0,0" fill="#ff0000" fill-opacity="1" fill-rule="nonzero" id="path33" stroke="none" transform="matrix(1.3333333,0,0,-1.3333333,274.3868,474.41053)"></path><path clip-path="url(#clipPath36)" d="M 0,0 C -0.195,-0.136 -0.098,-0.442 0.14,-0.442 H 13.948 V 1.344 H 4.157 C 2.243,1.344 0.76,0.529 0,0" fill="#ff0000" fill-opacity="1" fill-rule="nonzero" id="path35" stroke="none" transform="matrix(1.3333333,0,0,-1.3333333,290.7964,474.41053)"></path><path clip-path="url(#clipPath38)" d="m 0,0 c 0.176,-0.027 0.283,0.136 0.182,0.283 -0.277,0.403 -0.96,0.946 -1.913,1.133 -1.111,0.219 -1.903,-0.06 -3.721,-0.032 -1.758,0.026 -3.39,0.356 -4.978,1.105 -2.526,1.19 -4.371,0.65 -5.39,0.177 -0.165,-0.076 -0.12,-0.336 0.061,-0.321 1.341,0.109 2.198,-0.223 3.266,-1.013 1.111,-0.822 3.335,-1.95 4.936,-2.11 1.454,-0.145 2.998,-0.067 4.234,0.342 C -2.196,-0.063 -1.156,0.179 0,0" fill="#ff0000" fill-opacity="1" fill-rule="nonzero" id="path37" stroke="none" transform="matrix(1.3333333,0,0,-1.3333333,275.58867,403.94253)"></path><path clip-path="url(#clipPath40)" d="M 0,0 C 1.601,0.16 3.826,1.288 4.937,2.11 6.004,2.9 6.861,3.231 8.202,3.123 8.383,3.108 8.428,3.368 8.264,3.444 7.244,3.916 5.399,4.457 2.873,3.267 1.285,2.518 -0.347,2.188 -2.104,2.162 -3.923,2.134 -4.715,2.413 -5.825,2.194 -6.779,2.007 -7.461,1.464 -7.739,1.06 -7.839,0.914 -7.732,0.75 -7.557,0.778 -6.4,0.957 -5.361,0.715 -4.234,0.342 -2.998,-0.067 -1.454,-0.145 0,0" fill="#ff0000" fill-opacity="1" fill-rule="nonzero" id="path39" stroke="none" transform="matrix(1.3333333,0,0,-1.3333333,299.66987,404.9796)"></path><path clip-path="url(#clipPath42)" d="M 0,0 C 0.265,0.158 0.361,0.29 0.347,0.38 0.375,0.553 0.062,0.612 -0.348,0.469 -2.458,-0.267 -3.444,-0.27 -5.598,0.468 -6.013,0.61 -6.311,0.527 -6.291,0.354 -6.307,0.264 -6.224,0.14 -5.997,0.008 -3.424,-1.499 -2.506,-1.497 0,0" fill="#ff0000" fill-opacity="1" fill-rule="nonzero" id="path41" stroke="none" transform="matrix(1.3333333,0,0,-1.3333333,286.5548,420.89173)"></path><path clip-path="url(#clipPath44)" d="m 0,0 c 0.445,-0.704 1.108,-1.406 2.159,-1.952 1.165,-0.606 2.38,-0.666 3.156,-0.666 0.776,0 1.99,0.06 3.157,0.666 1.05,0.546 1.713,1.248 2.158,1.952 0.227,0.36 0.582,0.746 0.807,0.882 0.143,0.124 0.164,0.253 0.085,0.369 -0.099,0.143 -0.339,0.06 -0.339,0.06 C 10.661,1.098 9.654,1.051 9.147,1.201 8.042,1.529 6.747,1.594 6.079,1.006 5.844,0.8 5.595,0.598 5.315,0.598 5.035,0.598 4.786,0.8 4.551,1.006 3.883,1.594 2.587,1.529 1.483,1.201 0.976,1.051 -0.031,1.098 -0.553,1.311 c 0,0 -0.24,0.083 -0.339,-0.06 C -0.972,1.135 -0.95,1.006 -0.807,0.882 -0.582,0.746 -0.227,0.36 0,0" fill="#ff0000" fill-opacity="1" fill-rule="nonzero" id="path43" stroke="none" transform="matrix(1.3333333,0,0,-1.3333333,275.50493,430.464)"></path></g></svg>